<?xml version="1.0" encoding="UTF-8" standalone="no"?>
<svg width="24" height="20" viewBox="0 0 24 20" fill="none" xmlns="http://www.w3.org/2000/svg">
<path d="M5.56837 19.3171L12.6932 1.71392C13.1156 0.676289 14.122 0 15.2426 0H10.7207C8.96971 0 7.38668 1.06472 6.73604 2.68483L0 19.3174H5.56871L5.56837 19.3171Z" fill="#D7D7D7"/>
<path d="M18.6506 12.9824C18.657 12.9983 18.6638 13.0139 18.6708 13.0295L21.2199 19.3169H23.9999L17.4853 3.24477L17.2877 2.7544L16.9939 2.02867C16.7051 1.31885 16.0144 0.850159 15.2429 0.850159C14.7467 0.850159 14.2903 1.04387 13.948 1.36525L16.0982 6.67633L16.0969 6.67938L17.9185 11.1726L18.651 12.9824H18.6506Z" fill="#D7D7D7"/>
<path fill-rule="evenodd" clip-rule="evenodd" d="M13.7918 19.3169L12.3248 15.6861C12.111 15.157 11.5974 14.8106 11.0267 14.8106H10.2779H8.33474L9.33597 12.3412L11.7249 12.3412H12.5711C13.3082 12.3412 13.9708 12.7905 14.2434 13.4753L15.1806 15.829L16.5694 19.3169H13.7918Z" fill="#D7D7D7"/>
<path fill-rule="evenodd" clip-rule="evenodd" d="M17.5151 19.3169L12.002 5.7176L13.3908 2.28265L20.2951 19.3169H17.5151Z" fill="#D7D7D7"/>
</svg>
